<svg width="20" height="20" viewBox="0 0 20 20" fill="none" xmlns="http://www.w3.org/2000/svg">
<path d="M4 12.1593H11.825V10.7519H4V12.1593ZM4 9.10989H16V7.70248H4V9.10989ZM4 6.06051H16V4.6531H4V6.06051ZM0 19.642V2.28396C0 1.92429 0.15 1.59981 0.45 1.31051C0.75 1.02121 1.1 0.876556 1.5 0.876556H18.5C18.8833 0.876556 19.2292 1.02121 19.5375 1.31051C19.8458 1.59981 20 1.92429 20 2.28396V14.4815C20 14.8412 19.8458 15.1657 19.5375 15.455C19.2292 15.7443 18.8833 15.8889 18.5 15.8889H4L0 19.642ZM1.5 16.2408L3.375 14.4815H18.5V2.28396H1.5V16.2408Z" fill="black" fill-opacity="0.5"/>
</svg>
